<svg xmlns="http://www.w3.org/2000/svg" width="80" height="80" viewBox="0 0 80 80">
  <path fill="#FFF" d="M46,10 L46.3138282,10.0032178 C54.3475073,10.1681003 60.829685,16.6489508 60.9966983,24.6821064 L61,25 L61,80 L55,80 L55,25 L54.9961629,24.7346377 C54.8583436,19.9749559 51.0250441,16.1416564 46.2653623,16.0038371 L46,16 L36,16 L35.7346377,16.0038371 C30.9749559,16.1416564 27.1416564,19.9749559 27.0038371,24.7346377 L27,25 L27,43 L35.5,34 L40,38 L24,54 L8,38 L12.5,34 L21,43 L21,25 L21.0032178,24.6861718 C21.1681003,16.6524927 27.6489508,10.170315 35.6821064,10.0033017 L36,10 L46,10 Z"/>
</svg>
