<svg xmlns="http://www.w3.org/2000/svg" width="80" height="80" viewBox="0 0 80 80">
  <g fill="none" transform="translate(9 10)">
    <path fill="#D1DEF4" fill-opacity=".35" d="M16,32 C7.163444,32 0,24.836556 0,16 C0,7.163444 7.163444,0 16,0 L16,0 C24.836556,0 32,7.163444 32,16 C32,24.836556 24.836556,32 16,32 Z M16,6 L16,6 C10.4771525,6 6,10.4771525 6,16 C6,21.5228475 10.4771525,26 16,26 L16,26 C21.5228475,26 26,21.5228475 26,16 C26,10.4771525 21.5228475,6 16,6 Z" transform="translate(15)"/>
    <path fill="#FFF" d="M28.31,25.63 C27.5578407,25.4228015 26.8328103,25.1274188 26.15,24.75 C23.0349457,23.040201 19.1654103,23.5900823 16.65,26.1 L5.79,37 L5.79,37 L6.15,24.42 L0,24 L0,47 L23,47 L22.64,40.89 L10.06,41.25 L10.06,41.25 L20.9,30.35 C21.5182258,29.7396787 22.4597462,29.5982486 23.23,30 C24.3228405,30.6090767 25.4843611,31.0857702 26.69,31.42 C27.4779535,31.7096253 28.0011727,32.4605048 28,33.3 L28,70 L34.0001953,70 L34.0001953,33.3 C34.0246986,29.7609418 31.7040971,26.63282 28.31,25.63 Z"/>
  </g>
</svg>
