<svg xmlns="http://www.w3.org/2000/svg" width="80" height="80" viewBox="0 0 80 80">
  <g fill="none" transform="translate(9 8)">
    <path fill="#D1DEF4" fill-opacity=".35" d="M16,32 C7.163444,32 0,24.836556 0,16 C0,7.163444 7.163444,0 16,0 L16,0 C24.836556,0 32,7.163444 32,16 C32,24.836556 24.836556,32 16,32 Z M16,6 L16,6 C10.4771525,6 6,10.4771525 6,16 C6,21.5228475 10.4771525,26 16,26 L16,26 C21.5228475,26 26,21.5228475 26,16 C26,10.4771525 21.5228475,6 16,6 Z" transform="translate(15 15)"/>
    <path fill="#FFF" d="M27.12,40.22 C24.6741455,39.1916289 22.737237,37.2334045 21.7356963,34.7764414 C20.7341556,32.3194782 20.7500931,29.5652082 21.78,27.12 C23.4858238,22.9597636 22.4879275,18.1801574 19.26,15.05 L10,5.8 L10,5.75 L22.58,6.11 L23,0 L0,0 L0,23 L6.11,22.64 L5.75,10.06 L5.75,10.06 L15,19.29 C16.4753233,20.7110846 16.9594434,22.8758494 16.23,24.79 C14.5693537,28.7063909 14.5366624,33.1228671 16.1391507,37.0634121 C17.741639,41.003957 20.847372,44.1441407 24.77,45.79 C26.6610603,46.5281042 27.931146,48.3211664 28,50.35 L28,72 L34,72 L34,50.35 C33.95307,45.8968346 31.2421848,41.9053714 27.12,40.22 L27.12,40.22 Z"/>
  </g>
</svg>
