<svg xmlns="http://www.w3.org/2000/svg" width="80" height="80" viewBox="0 0 80 80">
  <g fill="none" transform="translate(2 9)">
    <path fill="#D1DEF4" fill-opacity=".35" d="M16,32 C7.163444,32 0,24.836556 0,16 C0,7.163444 7.163444,0 16,0 L16,0 C24.836556,0 32,7.163444 32,16 C32,24.836556 24.836556,32 16,32 Z M16,6 L16,6 C10.4771525,6 6,10.4771525 6,16 C6,21.5228475 10.4771525,26 16,26 L16,26 C21.5228475,26 26,21.5228475 26,16 C26,10.4771525 21.5228475,6 16,6 L16,6 Z" transform="translate(30)"/>
    <path fill="#FFF" d="M42.55,25.39 C39.7961327,24.3801507 37.6244879,22.2121619 36.61,19.46 C35.141266,15.5796667 31.4289853,13.0093202 27.28,13 L11.39,13 L20.33,4.55 L16.26,0 L0,16.26 L16.26,32.53 L20.33,28 L11.18,19.36 L11.18,19 L27.28,19 C28.9294421,18.9844868 30.4139508,19.998103 31,21.54 C32.6187878,25.9351266 36.08977,29.3951362 40.49,31 C42.0157631,31.6123751 43.0114396,33.0959728 43,34.74 L43,71 L49,71 L49,34.74 C49.0005553,30.5862218 46.4332273,26.8645912 42.55,25.39 Z"/>
  </g>
</svg>
