<svg width="80" height="80" viewBox="0 0 80 80" fill="none" xmlns="http://www.w3.org/2000/svg">
<path d="M41 41C32.1634 41 25 33.8366 25 25C25 16.1634 32.1634 9 41 9C49.8366 9 57 16.1634 57 25C57 33.8366 49.8366 41 41 41ZM41 15C35.4772 15 31 19.4772 31 25C31 30.5228 35.4772 35 41 35C46.5228 35 51 30.5228 51 25C51 19.4772 46.5228 15 41 15Z" fill="#D1DEF4" fill-opacity="0.35"/>
<path d="M45 24H22V47L28 46.5V34.6274L29.6863 36.3137C31.2489 37.8763 33.0608 39.0521 34.9973 39.8349C37.0771 40.6756 38 42.039 38 43V80H44V43C44 38.4381 40.2863 35.5012 37.2458 34.2721C36.0423 33.7857 34.912 33.0541 33.9289 32.071L31.8579 30L44.5 30L45 24Z" fill="white"/>
</svg>
