<svg width="80" height="80" viewBox="0 0 80 80" fill="none" xmlns="http://www.w3.org/2000/svg">
<path fill-rule="evenodd" clip-rule="evenodd" d="M39 2V80H33V2H39ZM48 9L47.9999 44.8888L48 80H42V9H48Z" fill="#C3CDDE" fill-opacity="0.35"/>
<path d="M61 18L45 2L29 18L33.5 22L42 13L42 33.7654C42 36.6183 43.1083 39.3595 45.0911 41.4107L55.0949 51.7595C55.9962 52.6918 56.5 53.9378 56.5 55.2346V80H62.5V55.2346C62.5 52.3817 61.3917 49.6405 59.4089 47.5893L49.4051 37.2405C48.5038 36.3082 48 35.0622 48 33.7654V13L56.5 22L61 18Z" fill="white"/>
</svg>
