<svg width="80" height="80" viewBox="0 0 80 80" fill="none" xmlns="http://www.w3.org/2000/svg">
<path fill-rule="evenodd" clip-rule="evenodd" d="M39 10V80H33L33 10H39ZM48 2L47.9999 44.8888L48 80H42V2H48Z" fill="#C3CDDE" fill-opacity="0.35"/>
<path d="M20 18L36 2L52 18L47.5 22L39 13L39 33.7654C39 36.6183 37.8917 39.3595 35.9089 41.4107L25.9051 51.7595C25.0038 52.6918 24.5 53.9378 24.5 55.2346V80H18.5V55.2346C18.5 52.3817 19.6083 49.6405 21.5911 47.5893L31.5949 37.2405C32.4962 36.3082 33 35.0622 33 33.7654L33 13L24.5 22L20 18Z" fill="white"/>
</svg>
