<svg xmlns="http://www.w3.org/2000/svg" width="80" height="80" viewBox="0 0 80 80">
  <g fill="none" transform="translate(24 10)">
    <path fill="#D1DEF4" fill-opacity=".35" d="M16,32 L16,32 C7.163444,32 0,24.836556 0,16 C0,7.163444 7.163444,0 16,0 L16,0 C24.836556,0 32,7.163444 32,16 C32,24.836556 24.836556,32 16,32 Z M16,6 C10.4771525,6 6,10.4771525 6,16 C6,21.5228475 10.4771525,26 16,26 L16,26 C21.5228475,26 26,21.5228475 26,16 C26,10.4771525 21.5228475,6 16,6 Z"/>
    <path fill="#FFF" d="M40.89,24.36 L41.25,36.94 L41.25,36.94 L30.35,26.1 C27.8345897,23.5900823 23.9650543,23.040201 20.85,24.75 C20.1671897,25.1274188 19.4421593,25.4228015 18.69,25.63 C15.2959029,26.63282 12.9753014,29.7609418 12.9998047,33.3 L12.9998047,70 L19,70 L19,33.3 C18.9976413,32.4516913 19.5307039,31.6941812 20.33,31.41 C21.5283112,31.077457 22.6830203,30.6041605 23.77,30 C24.542357,29.6008076 25.4841384,29.7463189 26.1,30.36 L37,41.21 L37,41.21 L24.42,40.85 L24,47 L47,47 L47,24 L40.89,24.36 Z"/>
  </g>
</svg>
