<svg xmlns="http://www.w3.org/2000/svg" width="80" height="80" viewBox="0 0 80 80">
  <g fill="none" transform="translate(16 9)">
    <path fill="#D1DEF4" fill-opacity=".35" d="M16,32 L16,32 C7.163444,32 0,24.836556 0,16 C0,7.163444 7.163444,0 16,0 L16,0 C24.836556,0 32,7.163444 32,16 C32,24.836556 24.836556,32 16,32 Z M16,6 C10.4771525,6 6,10.4771525 6,16 C6,21.5228475 10.4771525,26 16,26 L16,26 C21.5228475,26 26,21.5228475 26,16 C26,10.4771525 21.5228475,6 16,6 Z"/>
    <path fill="#FFF" d="M45.74,0 L41.67,4.57 L50.61,13 L34.72,13 C30.5760568,13.0061595 26.8652408,15.5675373 25.39,19.44 C24.3755121,22.1921619 22.2038673,24.3601507 19.45,25.37 C15.5599254,26.8471806 12.9911251,30.5789107 12.9999771,34.74 L12.9999771,71 L19,71 L19,34.74 C18.9885604,33.0959728 19.9842369,31.6123751 21.51,31 C25.91023,29.3951362 29.3812122,25.9351266 31,21.54 C31.5860492,19.998103 33.0705579,18.9844868 34.72,19 L50.82,19 L50.82,19.29 L41.67,28 L45.74,32.58 L62,16.26 L45.74,0 Z"/>
  </g>
</svg>
