<svg xmlns="http://www.w3.org/2000/svg" width="80" height="80" viewBox="0 0 80 80">
  <g fill="none" transform="translate(9 8)">
    <path fill="#D1DEF4" fill-opacity=".35" d="M16,32 L16,32 C7.163444,32 0,24.836556 0,16 C0,7.163444 7.163444,0 16,0 L16,0 C24.836556,0 32,7.163444 32,16 C32,24.836556 24.836556,32 16,32 Z M16,6 C10.4771525,6 6,10.4771525 6,16 C6,21.5228475 10.4771525,26 16,26 L16,26 C21.5228475,26 26,21.5228475 26,16 C26,10.4771525 21.5228475,6 16,6 Z" opacity=".99" transform="translate(15 15)"/>
    <path fill="#FFF" d="M46.9,29.19 C46.3209112,24.0950715 43.334954,19.586371 38.8699826,17.0649288 C34.4050112,14.5434866 29.0020458,14.3148257 24.34,16.45 C22.7387651,17.1106416 20.8958473,16.7126031 19.71,15.45 L10,5.79 L10,5.79 L22.58,6.15 L23,0 L0,0 L0,23 L6.11,22.64 L5.75,10.06 L5.75,10.06 L15.42,19.74 C18.4026413,22.7731289 22.95564,23.6342915 26.84,21.9 C28.556598,21.1282516 30.4526868,20.8445303 32.32,21.08 C36.8835897,21.6759864 40.4511068,25.3097853 40.9629917,29.8835719 C41.4748767,34.4573586 38.7989301,38.7899078 34.48,40.38 C30.5276593,41.9246251 27.9462579,45.7568908 28,50 L28,72 L34,72 L34,50 C33.9443684,48.2569237 34.9767666,46.6624863 36.59,46 C43.4816376,43.4321329 47.7351797,36.4969204 46.9,29.19 Z"/>
  </g>
</svg>
