<svg xmlns="http://www.w3.org/2000/svg" width="80" height="80" viewBox="0 0 80 80">
  <g fill="none" transform="translate(16 9)">
    <path fill="#D1DEF4" fill-opacity=".35" d="M16,32 L16,32 C7.163444,32 0,24.836556 0,16 C0,7.163444 7.163444,0 16,0 L16,0 C24.836556,0 32,7.163444 32,16 C32,24.836556 24.836556,32 16,32 Z M16,6 C10.4771525,6 6,10.4771525 6,16 C6,21.5228475 10.4771525,26 16,26 L16,26 C21.5228475,26 26,21.5228475 26,16 C26,10.4771525 21.5228475,6 16,6 Z" transform="translate(0 1)"/>
    <path fill="#FFF" d="M45.74,0.77 L41.67,5.34 L50.82,14 L50.82,14 L35,14 C33.2569237,14.0556316 31.6624863,13.0232334 31,11.41 C28.4128483,4.5024374 21.438741,0.258665165 14.1148593,1.13532408 C6.79097748,2.01198299 1.01549132,7.7818646 0.131722256,15.1048918 C-0.752046806,22.427919 3.48495245,29.4061431 10.39,32 C11.9069208,32.4993196 12.949786,33.8938022 13,35.49 L13,72 L19,72 L19,35.49 C18.9739407,31.3863446 16.3785739,27.7392344 12.51,26.37 C8.45186495,24.8627413 5.82436766,20.9154412 6,16.59 C6.2754112,11.400474 10.4296391,7.25920107 15.62,7 C19.938211,6.83319245 23.875041,9.4590903 25.38,13.51 C26.921384,17.4662756 30.7543833,20.0521556 35,20 L50.82,20 L50.82,20.06 L41.67,28.7 L45.74,33.27 L62,17 L45.74,0.77 Z"/>
  </g>
</svg>
