<svg width="80" height="80" viewBox="0 0 80 80" fill="none" xmlns="http://www.w3.org/2000/svg">
<path d="M39 41C47.8366 41 55 33.8366 55 25C55 16.1634 47.8366 9 39 9C30.1634 9 23 16.1634 23 25C23 33.8366 30.1634 41 39 41ZM39 15C44.5228 15 49 19.4772 49 25C49 30.5228 44.5228 35 39 35C33.4772 35 29 30.5228 29 25C29 19.4772 33.4772 15 39 15Z" fill="#D1DEF4" fill-opacity="0.35"/>
<path d="M35 24H58V47L52 46.5V34.6274L50.3137 36.3137C48.7511 37.8763 46.9392 39.0521 45.0027 39.8349C42.9229 40.6756 42 42.039 42 43V80H36V43C36 38.4381 39.7137 35.5012 42.7542 34.2721C43.9577 33.7857 45.088 33.0541 46.0711 32.071L48.1421 30L35.5 30L35 24Z" fill="white"/>
</svg>
