<svg xmlns="http://www.w3.org/2000/svg" width="80" height="80" viewBox="0 0 80 80">
  <g fill="none" transform="translate(24 8)">
    <path fill="#D1DEF4" fill-opacity=".35" d="M16,32 C7.163444,32 0,24.836556 0,16 C0,7.163444 7.163444,0 16,0 L16,0 C24.836556,0 32,7.163444 32,16 C32,24.836556 24.836556,32 16,32 Z M16,6 L16,6 C10.4771525,6 6,10.4771525 6,16 C6,21.5228475 10.4771525,26 16,26 L16,26 C21.5228475,26 26,21.5228475 26,16 C26,10.4771525 21.5228475,6 16,6 Z" transform="translate(0 15)"/>
    <path fill="#FFF" d="M24,0 L24.36,6.11 L36.94,5.75 L36.94,5.75 L27.26,15.42 C26.0741527,16.6826031 24.2312349,17.0806416 22.63,16.42 C17.3191033,14.103317 11.1707026,14.8389502 6.55625447,18.3431637 C1.94180634,21.8473772 -0.417547288,27.5725355 0.388203372,33.310428 C1.19395403,39.0483204 5.03888697,43.9022341 10.44,46 C12.0414467,46.6720362 13.060505,48.2643148 13,50 L13,72 L19,72 L19,50 C19.0380157,45.7627964 16.4498565,41.9442662 12.5,40.41 C8.1810699,38.8199078 5.50512335,34.4873586 6.01700828,29.9135719 C6.52889321,25.3397853 10.0964103,21.7059864 14.66,21.11 C16.5273132,20.8745303 18.423402,21.1582516 20.14,21.93 C24.0196008,23.6380508 28.551421,22.7659343 31.52,19.74 L41.21,10 L41.21,10 L40.85,22.58 L47,23 L47,0 L24,0 Z"/>
  </g>
</svg>
