<svg xmlns="http://www.w3.org/2000/svg" width="80" height="80" viewBox="0 0 80 80">
  <g fill="none" fill-rule="evenodd">
    <path fill="#D1DEF4" fill-opacity=".35" d="M37,2 L43,2 L43,80 L37,80 L37,2 Z M28,2 L34,2 L34,80 L28,80 L28,2 Z"/>
    <path fill="#FFF" fill-rule="nonzero" d="M60,7 L59.640625,13.109375 L47.0625,12.75 L46.905,12.907 L67.7037927,33.7318593 L68,34 C71.1918706,37.4069581 72.8918747,41.8802181 72.9950079,46.5477283 L73,47 L73,80 L67,80 L67,46.5 C66.9118668,43.3527855 65.8832431,40.5660321 63.7600473,38.2728093 L63.5,38 L42.895,16.916 L42.75,17.0625 L43.109375,29.640625 L37,30 L37,7 L60,7 Z" transform="matrix(-1 0 0 1 110 0)"/>
  </g>
</svg>
