<?xml version="1.0" encoding="utf-8"?>
<!-- Generator: Adobe Illustrator 29.7.1, SVG Export Plug-In . SVG Version: 9.03 Build 0)  -->
<svg version="1.1" baseProfile="tiny" id="Layer_1" xmlns="http://www.w3.org/2000/svg" xmlns:xlink="http://www.w3.org/1999/xlink"
	 x="0px" y="0px" viewBox="0 0 64 64" overflow="visible" xml:space="preserve">
<g id="Layer_4">
	<path fill="#058686" d="M58.4353714,22.8047962C56.3451691,9.2817326,45.1987915-0.3464854,31.4141502,0.0095573
		C21.0809708,0.276431,11.4972925,6.769166,7.7541842,16.3947601c-8.7359848,22.465004,11.0188885,32.7284889,23.7621632,46.9553604
		L32.3575058,64C43.2283669,51.5832253,61.39394,41.9460716,58.4353714,22.8047962z M43.8213768,51.7207565l-23.4510269,0.0000076
		c-4.6184883-4.6197128-9.8366117-9.3803062-12.303689-15.6082726c-6.2390265-15.7499371,4.559495-33.808403,21.487812-35.3490448
		c12.483366-1.136102,23.9488697,6.2164288,27.3940716,18.3396378
		C61.0116119,33.4006615,54.016346,42.7560577,43.8213768,51.7207565z"/>
</g>
<g id="Layer_5">
	<path fill="#01B6B2" d="M29.5544624,0.7634557c12.4833641-1.1361048,23.9488907,6.2164145,27.3940697,18.3396358
		c4.0630875,14.2975731-2.9321976,23.6529579-13.1271477,32.617672H20.3703499
		c-4.6184902-4.6197128-9.8366203-9.3802986-12.3036995-15.6082649C1.8276335,20.362545,12.6261559,2.3040926,29.5544624,0.7634557z
		"/>
	<circle fill="#FFFFFF" cx="32.2230721" cy="26.4673843" r="7.2469563"/>
</g>
</svg>
