<?xml version="1.0" encoding="utf-8"?>
<!-- Generator: Adobe Illustrator 29.7.1, SVG Export Plug-In . SVG Version: 9.03 Build 0)  -->
<svg version="1.1" baseProfile="tiny" id="Layer_1" xmlns="http://www.w3.org/2000/svg" xmlns:xlink="http://www.w3.org/1999/xlink"
	 x="0px" y="0px" viewBox="0 0 64 64" overflow="visible" xml:space="preserve">
<g id="Layer_12">
	<path fill="#00AFAA" d="M0.0321777,6.1853733c0.0566626-0.5726185,0.3158115-2.4658012,1.8889678-4.0954332
		c1.6928501-1.7536333,3.7589235-2.0125947,4.3018527-2.063638c17.1913967,0,34.382885,0,51.5742874,0
		c0.6197281,0.0934698,2.694046,0.4851433,4.3652611,2.317636C63.5578461,3.8738251,63.9007263,5.5622735,64,6.2290177
		c0,17.1874619,0,34.3749199,0,51.5623856c-0.0249138,0.5707474-0.1761665,2.3581886-1.5517082,3.9526062
		c-1.7640266,2.0447197-4.1911469,2.2067451-4.6291847,2.2282867c-17.2146225,0-34.4291534,0-51.6437759,0
		c-0.3831506,0.0090866-2.6097522,0.0248184-4.3970084-1.7520447c-1.8016796-1.7911873-1.7859452-4.0412025-1.7769542-4.421917
		C0.0116669,40.5940132,0.0218756,23.3896923,0.0321777,6.1853733z"/>
	<polygon fill="#FFFFFF" points="33.3484421,25.3255463 14.3214979,34.0603218 16.6020241,38.5635948 35.0243454,28.8679848 
		33.1150169,34.2059631 37.0881653,35.6271095 41.3519058,23.70681 29.4316101,19.4430656 28.0104618,23.4162159 	"/>
	<polygon fill="#FFFFFF" points="56.8608246,33.2307091 56.8608246,57.8617287 7.7266731,57.8617287 	"/>
</g>
</svg>
