<?xml version="1.0" encoding="utf-8"?>
<!-- Generator: Adobe Illustrator 29.7.1, SVG Export Plug-In . SVG Version: 9.03 Build 0)  -->
<svg version="1.1" baseProfile="tiny" id="Layer_1" xmlns="http://www.w3.org/2000/svg" xmlns:xlink="http://www.w3.org/1999/xlink"
	 x="0px" y="0px" viewBox="0 0 64 64" overflow="visible" xml:space="preserve">
<g id="Layer_11">
	<path fill="#00AFAA" d="M0.0321777,6.1853733c0.0566626-0.5726185,0.3158115-2.4658012,1.8889678-4.0954332
		c1.6928501-1.7536333,3.7589235-2.0125947,4.3018527-2.063638c17.1913967,0,34.382885,0,51.5742874,0
		c0.6197281,0.0934698,2.694046,0.4851433,4.3652611,2.317636C63.5578461,3.8738251,63.9007263,5.5622735,64,6.2290177
		c0,17.1874619,0,34.3749199,0,51.5623856c-0.0249138,0.5707474-0.1761665,2.3581886-1.5517082,3.9526062
		c-1.7640266,2.0447197-4.1911469,2.2067451-4.6291847,2.2282867c-17.2146225,0-34.4291534,0-51.6437759,0
		c-0.3831506,0.0090866-2.6097522,0.0248184-4.3970084-1.7520447c-1.8016796-1.7911873-1.7859452-4.0412025-1.7769542-4.421917
		C0.0116669,40.5940132,0.0218756,23.3896923,0.0321777,6.1853733z"/>
	<path fill="#FFFFFF" d="M36.3595695,52.521328c-0.107235,0.2912712-0.4035683,0.9751511-1.1191063,1.5238876
		c-0.8205299,0.6292839-1.6836739,0.6907234-1.9842186,0.6984024c-6.8998966,0-13.7997017,0-20.6995983,0
		c-0.318059-0.0367126-1.2773886-0.1888123-2.1270447-0.9841461c-0.8237123-0.7710838-1.0479279-1.6820831-1.1112404-2.0001411
		c0-13.1250877,0-26.2500858,0-39.3751755c0.0435514-0.3038235,0.2324572-1.3550291,1.1588192-2.1985044
		c0.7886839-0.7180672,1.663909-0.8775644,1.992178-0.9207401c6.9236851,0,13.8472767,0,20.7709637,0
		c0.3524323,0.061532,1.1599426,0.2521248,1.904892,0.920742c0.9286079,0.8334532,1.1555405,1.8670521,1.2143555,2.1985044
		C36.3595695,25.7632427,36.3595695,39.1422348,36.3595695,52.521328z"/>
	<polygon fill="#00AFAA" points="24.7557449,47.4495773 24.7557449,40.3063278 28.8432732,40.3063278 28.8432732,23.7657337 
		16.4933853,23.7657337 16.4933853,40.3063278 20.58885,40.3063278 20.58885,47.4495773 	"/>
	<rect x="20.6642494" y="16.4835873" fill="#00AFAA" width="4.1430855" height="5.1788559"/>
	<polygon fill="#FFFFFF" points="59.2691116,38.6830406 56.1234589,35.0924187 52.3946953,40.0333862 52.3946953,18.5968018 
		48.3282928,18.5968018 48.3282928,40.048748 44.5995255,35.0924187 41.4538727,38.6830406 50.3538094,50.160984 	"/>
</g>
</svg>
