<?xml version="1.0" encoding="utf-8"?>
<!-- Generator: Adobe Illustrator 29.7.1, SVG Export Plug-In . SVG Version: 9.03 Build 0)  -->
<svg version="1.1" baseProfile="tiny" id="Layer_1" xmlns="http://www.w3.org/2000/svg" xmlns:xlink="http://www.w3.org/1999/xlink"
	 x="0px" y="0px" viewBox="0 0 64 64" overflow="visible" xml:space="preserve">
<g id="Layer_2_00000181774395117948365900000011504324524583614607_">
	<path fill="#00AFAA" d="M0.0321777,6.1641378c0.0566626-0.5730901,0.3158115-2.4678299,1.8889678-4.0988026
		C3.6139956,0.3102596,5.680069,0.0510852,6.2229981,0c17.1913967,0,34.382885,0,51.5742874,0
		c0.6197281,0.0935467,2.694046,0.4855424,4.3652611,2.3195426C63.5578461,3.8506877,63.9007263,5.540525,64,6.207818
		c0,17.2015991,0,34.4032021,0,51.604805c-0.0249138,0.5712166-0.1761665,2.3601303-1.5517082,3.9558601
		c-1.7640266,2.046402-4.1911469,2.2085571-4.6291847,2.2301178c-17.2146225,0-34.4291534,0-51.6437759,0
		c-0.3831506,0.0090904-2.6097522,0.0248375-4.3970084-1.7534828c-1.8016796-1.7926636-1.7859452-4.044529-1.7769542-4.4255562
		C0.0116669,40.6010818,0.0218756,23.3826103,0.0321777,6.1641378z"/>
	<path fill="#FFFFFF" d="M53.657608,28.308012l-2.7209854-2.7232246h1.2949028c0.5239372,0,0.9486771-0.4250908,0.9486771-0.9494572
		v-1.1260681c0-0.5243683-0.4247398-0.9494591-0.9486771-0.9494591h-5.0234528l-4.8071594-5.2323685
		c-0.7164841-0.7799397-1.7267303-1.2237167-2.7852325-1.2237167h-7.5945892h-7.594593
		c-1.0585022,0-2.0687466,0.4437771-2.7852345,1.2237167l-4.8071575,5.2323685h-5.0234528
		c-0.5239363,0-0.948678,0.4250908-0.948678,0.9494591v1.1260681c0,0.5243664,0.4247417,0.9494572,0.948678,0.9494572h1.2949047
		L10.384573,28.308012c-0.3437376,0.3440208-0.5368624,0.8106995-0.5368624,1.2972164v17.1052895
		c0,0.6014137,0.4871693,1.0889854,1.088088,1.0889854h6.3032303c0.6009178,0,1.0880871-0.4875717,1.0880871-1.0889854v-2.0579872
		h13.6939754H45.715065v2.0579872c0,0.6014137,0.4871674,1.0889854,1.0880852,1.0889854h6.3032303
		c0.6009178,0,1.088089-0.4875717,1.088089-1.0889854V29.6052284C54.1944695,29.1187115,54.0013428,28.6520329,53.657608,28.308012z
		"/>
	<ellipse fill="#00AFAA" cx="47.8965607" cy="32.580822" rx="2.6027985" ry="2.724556"/>
	<path fill="#00AFAA" d="M42.0610085,39.4957695h-10.039917H21.9811726c-0.8335876,0-1.5092869,0.6762543-1.5092869,1.5104294
		c0,0.8342743,0.6756992,1.5105286,1.5092869,1.5105286h10.0399189h10.039917c0.8335876,0,1.509285-0.6762543,1.509285-1.5105286
		C43.5702934,40.1720238,42.8945961,39.4957695,42.0610085,39.4957695z"/>
	<path fill="#00AFAA" d="M40.8879852,19.886343c-0.6120262-0.6662884-1.4750099-1.0453815-2.379261-1.0453815h-6.4876404h-6.4876423
		c-0.9042492,0-1.7672329,0.3790932-2.3792591,1.0453815l-5.4654293,6.1004677h14.3323307h14.3323288L40.8879852,19.886343z"/>
	<ellipse fill="#00AFAA" cx="16.1456184" cy="32.580822" rx="2.6027985" ry="2.724556"/>
</g>
</svg>
