<?xml version="1.0" encoding="utf-8"?>
<!-- Generator: Adobe Illustrator 29.7.1, SVG Export Plug-In . SVG Version: 9.03 Build 0)  -->
<svg version="1.1" baseProfile="tiny" id="Layer_1" xmlns="http://www.w3.org/2000/svg" xmlns:xlink="http://www.w3.org/1999/xlink"
	 x="0px" y="0px" viewBox="0 0 64 64" overflow="visible" xml:space="preserve">
<g id="Layer_16">
	<path fill="#00AFAA" d="M0.0321777,6.1853733c0.0566626-0.5726185,0.3158115-2.4658012,1.8889678-4.0954332
		c1.6928501-1.7536333,3.7589235-2.0125947,4.3018527-2.063638c17.1913967,0,34.382885,0,51.5742874,0
		c0.6197281,0.0934698,2.694046,0.4851433,4.3652611,2.317636C63.5578461,3.8738251,63.9007263,5.5622735,64,6.2290177
		c0,17.1874619,0,34.3749199,0,51.5623856c-0.0249138,0.5707474-0.1761665,2.3581886-1.5517082,3.9526062
		c-1.7640266,2.0447197-4.1911469,2.2067451-4.6291847,2.2282867c-17.2146225,0-34.4291534,0-51.6437759,0
		c-0.3831506,0.0090866-2.6097522,0.0248184-4.3970084-1.7520447c-1.8016796-1.7911873-1.7859452-4.0412025-1.7769542-4.421917
		C0.0116669,40.5940132,0.0218756,23.3896923,0.0321777,6.1853733z"/>
	<polygon fill="#FFFFFF" points="18.6972389,9.8231449 6.5671654,21.3073883 10.2311258,24.7795181 21.468298,12.5942039 
		21.468298,18.2633801 25.6879616,18.2633801 25.6879616,5.6034789 13.0280619,5.6034789 13.0280619,9.8231449 	"/>
	<polygon fill="#FFFFFF" points="27.9114914,22.4327946 39.4980469,22.4327946 39.4980469,10.7695084 56.3023834,10.7695084 
		56.3023834,18.289257 46.9410629,18.289257 46.9410629,29.850235 36.3008728,29.850235 36.3008728,41.5902519 
		24.7143173,41.5902519 24.7143173,53.2535362 7.9099784,53.2535362 7.9099784,45.7337875 17.2712994,45.7337875 
		17.2712994,34.1728096 27.9114914,34.1728096 	"/>
</g>
</svg>
