<?xml version="1.0" encoding="utf-8"?>
<!-- Generator: Adobe Illustrator 29.7.1, SVG Export Plug-In . SVG Version: 9.03 Build 0)  -->
<svg version="1.1" baseProfile="tiny" id="Layer_1" xmlns="http://www.w3.org/2000/svg" xmlns:xlink="http://www.w3.org/1999/xlink"
	 x="0px" y="0px" viewBox="0 0 64 64" overflow="visible" xml:space="preserve">
<g id="Layer_10">
	<path fill="#00AFAA" d="M0.0321781,6.1641378c0.0566626-0.5730901,0.3158115-2.4678299,1.8889678-4.0988026
		C3.613996,0.3102596,5.680069,0.0510852,6.2229986,0c17.1913986,0,34.382885,0,51.5742874,0
		c0.6197281,0.0935467,2.694046,0.4855424,4.3652611,2.3195426C63.5578461,3.8506877,63.9007263,5.540525,64,6.207818
		c0,17.2015991,0,34.4032021,0,51.604805c-0.0249138,0.5712166-0.1761665,2.3601303-1.5517082,3.9558601
		c-1.7640266,2.046402-4.1911469,2.2085571-4.6291847,2.2301178c-17.2146225,0-34.4291534,0-51.6437759,0
		c-0.3831511,0.0090904-2.6097524,0.0248375-4.3970084-1.7534828c-1.8016796-1.7926636-1.7859452-4.044529-1.7769542-4.4255562
		C0.0116673,40.6010818,0.0218759,23.3826103,0.0321781,6.1641378z"/>
	<path fill="#FFFFFF" d="M36.3595695,52.5382118c-0.107235,0.2915115-0.4035683,0.9759521-1.1191063,1.5251389
		c-0.8205299,0.6298027-1.6836739,0.6912956-1.9842186,0.6989784c-6.8998966,0-13.7997017,0-20.6995983,0
		c-0.318059-0.0367432-1.2773886-0.1889648-2.1270437-0.9849548c-0.8237133-0.7717171-1.0479279-1.6834679-1.1112404-2.0017891
		c0-13.1358871,0-26.2716789,0-39.4075699c0.0435505-0.3040733,0.2324562-1.356143,1.1588182-2.2003126
		c0.7886848-0.7186575,1.6639099-0.8782873,1.992178-0.9214983c6.9236851,0,13.8472786,0,20.7709637,0
		c0.3524361,0.0615835,1.1599426,0.2523327,1.904892,0.9214993c0.9286079,0.8341389,1.1555405,1.8685884,1.2143555,2.2003136
		C36.3595695,25.758112,36.3595695,39.1481133,36.3595695,52.5382118z"/>
	<polygon fill="#00AFAA" points="24.7557449,47.4622879 24.7557449,40.3131599 28.8432732,40.3131599 28.8432732,23.7589607 
		16.4933853,23.7589607 16.4933853,40.3131599 20.58885,40.3131599 20.58885,47.4622879 	"/>
	<rect x="20.6642494" y="16.4708233" fill="#00AFAA" width="4.1430855" height="5.1831169"/>
	<polygon fill="#FFFFFF" points="58.4173622,28.4165039 55.2717018,32.0100784 51.5429382,27.0650463 51.5429382,48.519268 
		47.4765358,48.519268 47.4765358,27.049675 43.7477722,32.0100784 40.6021156,28.4165039 49.5020561,16.9291172 	"/>
</g>
</svg>
