<?xml version="1.0" encoding="utf-8"?>
<!-- Generator: Adobe Illustrator 29.7.1, SVG Export Plug-In . SVG Version: 9.03 Build 0)  -->
<svg version="1.1" baseProfile="tiny" id="Layer_1" xmlns="http://www.w3.org/2000/svg" xmlns:xlink="http://www.w3.org/1999/xlink"
	 x="0px" y="0px" viewBox="0 0 64 64" overflow="visible" xml:space="preserve">
<g id="Layer_15">
	<path fill="#00AFAA" d="M57.8146248,0.0321777c0.5726204,0.0566626,2.4658012,0.3158114,4.0954323,1.8889675
		c1.7536392,1.6928501,2.0125961,3.7589238,2.0636406,4.3018532c0,17.1913948,0,34.3828812,0,51.5742874
		c-0.0934677,0.6197281-0.4851456,2.694046-2.3176384,4.3652611C60.1261749,63.5578461,58.4377251,63.9007263,57.7709808,64
		c-17.187458,0-34.3749237,0-51.5623894,0c-0.5707459-0.0249138-2.3581874-0.1761665-3.952606-1.5517082
		c-2.0447187-1.7640266-2.2067435-4.1911469-2.228287-4.6291847c0-17.2146263,0-34.4291534,0-51.6437759
		c-0.0090831-0.3831515-0.0248158-2.6097536,1.752046-4.3970098c1.7911881-1.8016794,4.0412035-1.7859449,4.4219179-1.7769539
		C23.4059868,0.0116669,40.6103058,0.0218756,57.8146248,0.0321777z"/>
	<polygon fill="#FFFFFF" points="51.9650154,17.776453 40.4807701,5.6463795 37.0086365,9.3103399 49.1939545,20.5475101 
		43.5247765,20.5475101 43.5247765,24.7671776 56.1846771,24.7671776 56.1846771,12.1072769 51.9650154,12.1072769 	"/>
	<polygon fill="#FFFFFF" points="36.1831665,22.5274506 24.5966129,22.5274506 24.5966129,10.8641663 7.792273,10.8641663 
		7.792273,18.3839149 17.153595,18.3839149 17.153595,29.944891 27.793787,29.944891 27.793787,41.6849098 39.3803368,41.6849098 
		39.3803368,53.3481941 56.1846771,53.3481941 56.1846771,45.8284454 46.8233566,45.8284454 46.8233566,34.2674675 
		36.1831665,34.2674675 	"/>
</g>
</svg>
