<?xml version="1.0" encoding="utf-8"?>
<!-- Generator: Adobe Illustrator 29.7.1, SVG Export Plug-In . SVG Version: 9.03 Build 0)  -->
<svg version="1.1" baseProfile="tiny" id="Layer_1" xmlns="http://www.w3.org/2000/svg" xmlns:xlink="http://www.w3.org/1999/xlink"
	 x="0px" y="0px" viewBox="0 0 64 64" overflow="visible" xml:space="preserve">
<g id="Layer_1_00000007399035213738122770000003759832216841905577_">
	<g id="Layer_2_00000181794816299948423810000016949685267189997975_">
		<path fill="#00AFAA" d="M0.0321777,6.1641378c0.0566626-0.5730901,0.3158115-2.4678299,1.8889678-4.0988026
			C3.6139956,0.3102596,5.680069,0.0510852,6.2229981,0c17.1913967,0,34.382885,0,51.5742874,0
			c0.6197281,0.0935467,2.694046,0.4855424,4.3652611,2.3195426C63.5578461,3.8506877,63.9007263,5.540525,64,6.207818
			c0,17.2015991,0,34.4032021,0,51.604805c-0.0249138,0.5712166-0.1761665,2.3601303-1.5517082,3.9558601
			c-1.7640266,2.046402-4.1911469,2.2085571-4.6291847,2.2301178c-17.2146225,0-34.4291534,0-51.6437759,0
			c-0.3831506,0.0090904-2.6097522,0.0248375-4.3970084-1.7534828c-1.8016796-1.7926636-1.7859452-4.044529-1.7769542-4.4255562
			C0.0116669,40.6010818,0.0218756,23.3826103,0.0321777,6.1641378z"/>
		<ellipse fill="#FFFFFF" cx="34.8386993" cy="10.0317802" rx="5.1370354" ry="5.3773441"/>
		<path fill="#FFFFFF" d="M24.2500687,17.8111935l19.4075851,19.6681805
			c0.036087,0.0365677,0.0853004,0.0571518,0.1366539,0.0571518h5.5979233c3.8705215,0,7.0081978,3.1402626,7.0081978,7.0139694
			v1.5487022c0,3.8737068-3.1376762,7.0139732-7.0081978,7.0139732h-9.2645531c-0.808506,0-1.5853271-0.3146706-2.1662292-0.8774796
			L18.236351,32.421299C17.9678669,32.1515999,17.6031284,32,17.2227287,32h-2.5810041
			c-3.8261404,0-6.9278398-3.1042519-6.9278398-6.9335403v-1.1775265c0-3.8292866,3.1016994-6.9335384,6.9278398-6.9335384
			h7.5620928C22.9727898,16.9553947,23.7097359,17.2636051,24.2500687,17.8111935z"/>
		<polygon fill="#FFFFFF" points="28.807478,16.3273296 39.387455,16.3273296 39.387455,26.8989506 		"/>
		<polygon fill="#FFFFFF" points="22.2151852,50.5215454 9.8505001,37.6710968 6.3861322,41.345417 19.4499969,53.3007469 
			13.7808352,53.3127518 13.7897606,57.535881 26.4496403,57.5090675 26.4228477,44.8387794 22.2031898,44.8477135 		"/>
	</g>
</g>
</svg>
