<?xml version="1.0" encoding="utf-8"?>
<!-- Generator: Adobe Illustrator 29.7.1, SVG Export Plug-In . SVG Version: 9.03 Build 0)  -->
<svg version="1.1" baseProfile="tiny" id="Layer_1" xmlns="http://www.w3.org/2000/svg" xmlns:xlink="http://www.w3.org/1999/xlink"
	 x="0px" y="0px" viewBox="0 0 64 64" overflow="visible" xml:space="preserve">
<g id="Layer_3">
	<path fill="#00AFAA" d="M0.0321781,6.1641378C0.0888407,5.5910478,0.3479895,3.6963084,1.9211462,2.065336
		C3.6139967,0.3102598,5.4041457,0.0804584,6.2229986,0C32.15131,0,40.6058846,0,57.797287,0
		c0.6197281,0.0935465,2.694046,0.4855424,4.3652611,2.3195426C63.5578461,3.8506877,63.9007263,5.5405259,64,6.207818
		c0,17.2015991,0,34.4032021,0,51.604805c-0.0249138,0.5712166-0.1761665,2.3601303-1.5517082,3.9558601
		c-1.7640266,2.046402-4.1911469,2.2085571-4.6291847,2.2301178c-17.2146187,0-34.4291534,0-51.6437759,0
		c-0.3831515,0.0090904-2.6097529,0.0248375-4.3970089-1.7534828c-1.8016796-1.7926636-1.7859451-4.044529-1.7769542-4.4255562
		C0.0116669,40.6010818,0.0218757,23.3826103,0.0321781,6.1641378z"/>
	<polygon fill="#FFFFFF" points="26.9147758,23.4586315 26.9147758,32.6297722 15.5750589,32.6297722 15.5750589,44.9609451 
		5.59829,44.9609451 5.59829,52.9816704 23.5074062,52.9816704 23.5074062,40.5413666 35.8557053,40.5413666 35.8557053,31.3702278 
		47.1954231,31.3702278 47.1954231,19.039053 57.1721878,19.039053 57.1721878,11.0183315 39.2630768,11.0183315 
		39.2630768,23.4586315 	"/>
</g>
</svg>
