<svg width="16" height="16" viewBox="0 0 16 16" fill="none" xmlns="http://www.w3.org/2000/svg">
<path d="M8 3C8.98891 3 9.95561 3.29324 10.7779 3.84265C11.6001 4.39206 12.241 5.17295 12.6194 6.08658C12.9978 7.00021 13.0969 8.00555 12.9039 8.97545C12.711 9.94536 12.2348 10.8363 11.5355 11.5355C10.8363 12.2348 9.94536 12.711 8.97545 12.9039C8.00555 13.0969 7.00022 12.9978 6.08659 12.6194C5.17296 12.241 4.39206 11.6001 3.84265 10.7779C3.29325 9.95561 3 8.98891 3 8C3 6.67392 3.52679 5.40215 4.46447 4.46447C5.40215 3.52678 6.67392 3 8 3ZM8 1C6.61553 1 5.26216 1.41054 4.11101 2.17971C2.95987 2.94888 2.06266 4.04213 1.53285 5.32122C1.00303 6.6003 0.86441 8.00776 1.13451 9.36563C1.4046 10.7235 2.07129 11.9708 3.05026 12.9497C4.02922 13.9287 5.2765 14.5954 6.63437 14.8655C7.99224 15.1356 9.3997 14.997 10.6788 14.4672C11.9579 13.9373 13.0511 13.0401 13.8203 11.889C14.5895 10.7378 15 9.38447 15 8C15 6.14348 14.2625 4.36301 12.9497 3.05025C11.637 1.7375 9.85652 1 8 1ZM8 5C7.40666 5 6.82664 5.17595 6.33329 5.50559C5.83994 5.83524 5.45543 6.30377 5.22836 6.85195C5.0013 7.40013 4.94189 8.00333 5.05765 8.58527C5.1734 9.16721 5.45913 9.70176 5.87868 10.1213C6.29824 10.5409 6.83279 10.8266 7.41473 10.9424C7.99668 11.0581 8.59987 10.9987 9.14805 10.7716C9.69623 10.5446 10.1648 10.1601 10.4944 9.66671C10.8241 9.17336 11 8.59334 11 8C11 7.20435 10.6839 6.44129 10.1213 5.87868C9.55871 5.31607 8.79565 5 8 5Z" fill="#00AFAA"/>
</svg>
