<?xml version="1.0" encoding="utf-8"?>
<!-- Generator: Adobe Illustrator 29.7.1, SVG Export Plug-In . SVG Version: 9.03 Build 0)  -->
<svg version="1.1" baseProfile="tiny" id="Layer_1" xmlns="http://www.w3.org/2000/svg" xmlns:xlink="http://www.w3.org/1999/xlink"
	 x="0px" y="0px" viewBox="0 0 64 64" overflow="visible" xml:space="preserve">
<g id="Layer_9">
	<g id="Layer_2_00000010295797594406079820000001645618501288676225_">
		<path fill="#00AFAA" d="M0.0321781,6.1641378c0.0566626-0.5730901,0.3158115-2.4678299,1.8889678-4.0988026
			C3.613996,0.3102596,5.680069,0.0510852,6.2229986,0c17.1913986,0,34.382885,0,51.5742874,0
			c0.6197281,0.0935467,2.694046,0.4855424,4.3652611,2.3195426C63.5578461,3.8506877,63.9007263,5.540525,64,6.207818
			c0,17.2015991,0,34.4032021,0,51.604805c-0.0249138,0.5712166-0.1761665,2.3601303-1.5517082,3.9558601
			c-1.7640266,2.046402-4.1911469,2.2085571-4.6291847,2.2301178c-17.2146225,0-34.4291534,0-51.6437759,0
			c-0.3831511,0.0090904-2.6097524,0.0248375-4.3970084-1.7534828c-1.8016796-1.7926636-1.7859452-4.044529-1.7769542-4.4255562
			C0.0116673,40.6010818,0.0218759,23.3826103,0.0321781,6.1641378z"/>
		<ellipse fill="#FFFFFF" cx="23.6869621" cy="15.9706135" rx="5.1370354" ry="5.3773441"/>
		<path fill="#FFFFFF" d="M39.8642464,17.8111935L20.4566631,37.4793739
			c-0.0360851,0.0365677-0.0853004,0.0571518-0.1366558,0.0571518h-5.5979195c-3.8705244,0-7.0082026,3.1402626-7.0082026,7.0139694
			v1.5487022c0,3.8737068,3.1376781,7.0139732,7.0082026,7.0139732h9.2645493c0.8085079,0,1.5853252-0.3146706,2.1662292-0.8774796
			L45.877964,32.421299C46.14645,32.1515999,46.5111885,32,46.8915863,32h2.5810089
			c3.8261337,0,6.9278336-3.1042519,6.9278336-6.9335403v-1.1775265c0-3.8292866-3.1016998-6.9335384-6.9278336-6.9335384
			h-7.5620956C41.1415253,16.9553947,40.4045792,17.2636051,39.8642464,17.8111935z"/>
		<polygon fill="#FFFFFF" points="28.8239975,22.4965496 18.2440186,22.4965496 18.2440186,33.0681686 		"/>
		<polygon fill="#FFFFFF" points="50.7280693,43.0231476 37.8118095,55.3181343 41.4615707,58.8080559 53.4877968,45.8077812 
			53.4646606,51.4815674 57.6842918,51.498806 57.7359543,38.8285904 45.0761604,38.7768898 45.0589409,42.9999924 		"/>
	</g>
</g>
</svg>
