<?xml version="1.0" encoding="utf-8"?>
<!-- Generator: Adobe Illustrator 29.7.1, SVG Export Plug-In . SVG Version: 9.03 Build 0)  -->
<svg version="1.1" baseProfile="tiny" id="Layer_1" xmlns="http://www.w3.org/2000/svg" xmlns:xlink="http://www.w3.org/1999/xlink"
	 x="0px" y="0px" viewBox="0 0 64 64" overflow="visible" xml:space="preserve">
<g id="Layer_13">
	<path fill="#00AFAA" d="M0.0321785,6.1641374C0.0888411,5.5910473,0.3479899,3.6963069,1.921146,2.0653348
		C3.6139963,0.3102584,5.6800694,0.051084,6.2229986-0.000001c17.1913948,0,34.382885,0,51.5742874,0
		c0.6197281,0.0935463,2.694046,0.4855426,4.3652611,2.3195426C63.5578461,3.8506866,63.9007263,5.540524,64,6.2078166
		c0,17.201601,0,34.4032021,0,51.604805c-0.0249138,0.5712166-0.1761665,2.3601303-1.5517082,3.9558601
		c-1.7640266,2.0463982-4.1911469,2.2085571-4.6291847,2.2301178c-17.2146225,0-34.4291534,0-51.6437759,0
		c-0.3831511,0.0090904-2.6097524,0.0248375-4.3970084-1.7534866c-1.8016795-1.7926598-1.7859451-4.0445251-1.7769541-4.4255562
		C0.0116677,40.6010818,0.0218763,23.3826103,0.0321785,6.1641374z"/>
	<polygon fill="#FFFFFF" points="44.2111092,32.2666283 25.6957741,22.4860191 23.5126419,27.04105 42.4218941,35.7560768 
		37.0251465,37.493782 38.317482,41.5139809 50.36903,37.6334915 46.4917297,25.5720367 42.4748344,26.8654404 	"/>
	<polygon fill="#FFFFFF" points="7.4329252,32.603878 7.4329252,57.2551575 56.5670738,57.2551575 	"/>
</g>
</svg>
