<?xml version="1.0" encoding="utf-8"?>
<!-- Generator: Adobe Illustrator 29.7.1, SVG Export Plug-In . SVG Version: 9.03 Build 0)  -->
<svg version="1.1" baseProfile="tiny" id="Layer_1" xmlns="http://www.w3.org/2000/svg" xmlns:xlink="http://www.w3.org/1999/xlink"
	 x="0px" y="0px" viewBox="0 0 64 64" overflow="visible" xml:space="preserve">
<g id="Layer_7">
	<path fill="#00AFAA" d="M0.0321781,6.1641378c0.0566626-0.5730901,0.3158115-2.4678299,1.8889678-4.0988026
		C3.613996,0.3102596,5.680069,0.0510852,6.2229986,0c17.1913986,0,34.382885,0,51.5742874,0
		c0.6197281,0.0935467,2.694046,0.4855424,4.3652611,2.3195426C63.5578461,3.8506877,63.9007263,5.540525,64,6.207818
		c0,17.2015991,0,34.4032021,0,51.604805c-0.0249138,0.5712166-0.1761665,2.3601303-1.5517082,3.9558601
		c-1.7640266,2.046402-4.1911469,2.2085571-4.6291847,2.2301178c-17.2146225,0-34.4291534,0-51.6437759,0
		c-0.3831511,0.0090904-2.6097524,0.0248375-4.3970084-1.7534828c-1.8016796-1.7926636-1.7859452-4.044529-1.7769542-4.4255562
		C0.0116673,40.6010818,0.0218759,23.3826103,0.0321781,6.1641378z"/>
	<ellipse fill="#FFFFFF" cx="37.5754776" cy="11.8160534" rx="5.1370354" ry="5.3773441"/>
	<path fill="#FFFFFF" d="M19.2284889,31.6873627l-0.0000057-0.0000019c-1.1768723-0.7978935-1.5367069-2.3708553-0.8239422-3.601738
		l4.3326321-7.4820595c0.1871185-0.3231392,0.4380531-0.5940609,0.7487316-0.8009624
		c1.0894184-0.7255211,3.8775425-2.4065781,6.5954018-2.6092014c3.4785233-0.2593365,6.2920341,1.788538,6.2920341,1.788538
		l3.325058,4.4541245l6.422081,3.4722519c1.3314247,0.7198677,1.7583542,2.4282112,0.9223175,3.6906357v0.0000019
		c-0.7604866,1.1483402-2.2889709,1.4948597-3.4696655,0.7866058l-5.997654-3.5977631c0,0-1.6113739-0.8191509-2.2763863,0.1023922
		l-1.2277145,5.6060562l5.8171959,5.7985039c0.3367157,0.3356361,0.5259933,0.7916679,0.5259933,1.2672882v13.6689301
		c0,1.7672043-1.4314194,3.1998062-3.1971703,3.1998062H37.217392c-1.7657471,0-3.1971703-1.4326019-3.1971703-3.1998062v-12.005661
		l-3.7769279-3.3917885l-2.8987694,6.7323837l-5.1592197,8.075676c-1.0273533,1.6081009-3.1974964,2.0149803-4.7367859,0.888092
		l-0.0000057-0.0000076c-1.4797192-1.0832748-1.7959738-3.1648216-0.7048683-4.639328l7.0753403-9.5615692l1.4451218-6.3228111
		l2.2124443-7.9099121c0,0,0-2.0478745-1.8927269-0.8191509l-2.3673344,5.27705
		C22.5275841,32.0895805,20.6209946,32.6314507,19.2284889,31.6873627z"/>
</g>
</svg>
