<svg width="80" height="80" viewBox="0 0 80 80" fill="none" xmlns="http://www.w3.org/2000/svg">
<path d="M37 33.0152V5H43V80H37L36.9999 46.488C36.9118 43.3408 35.8832 40.554 33.76 38.2608L33.4999 37.988L15 19.009L19.01 15L37 33.0152Z" fill="#C3CDDE" fill-opacity="0.35"/>
<path d="M50 7L50.3594 13.1094L62.9375 12.75L63.095 12.907L42.2962 33.7319L42 34C38.8081 37.407 37.1081 41.8802 37.005 46.5477L37 47V80H43V46.5C43.0881 43.3528 44.1168 40.566 46.24 38.2728L46.5 38L67.105 16.916L67.25 17.0625L66.8906 29.6406L73 30V7H50Z" fill="white"/>
</svg>
