<svg xmlns="http://www.w3.org/2000/svg" width="80" height="80" viewBox="0 0 80 80">
  <g fill="none" transform="translate(24 2)">
    <path fill="#D1DEF4" fill-opacity=".35" d="M16,32 L16,32 C7.163444,32 0,24.836556 0,16 C0,7.163444 7.163444,0 16,0 L16,0 C24.836556,0 32,7.163444 32,16 C32,24.836556 24.836556,32 16,32 Z M16,6 C10.4771525,6 6,10.4771525 6,16 C6,21.5228475 10.4771525,26 16,26 L16,26 C21.5228475,26 26,21.5228475 26,16 C26,10.4771525 21.5228475,6 16,6 Z" transform="translate(1 24)"/>
    <path fill="#FFF" d="M22.54,25 C20.998103,24.4139508 19.9844868,22.9294421 20,21.28 L20,11.18 L20,11.18 L28.64,20.33 L33.21,16.26 L17,0 L0.74,16.26 L5.31,20.33 L14,11.18 L14,11.18 L14,21.28 C14.0061595,25.4239432 16.5675373,29.1347592 20.44,30.61 C24.3805926,32.0532772 27.0008286,35.8034158 27.0008286,40 C27.0008286,44.1965842 24.3805926,47.9467228 20.44,49.39 C16.5607083,50.867847 13.9978663,54.5887434 14,58.74 L14,78 L20,78 L20,58.74 C19.9885604,57.0959728 20.9842369,55.6123751 22.51,55 C28.7810575,52.672282 32.9422356,46.6891279 32.9422356,40 C32.9422356,33.3108721 28.7810575,27.327718 22.51,25 L22.54,25 Z"/>
  </g>
</svg>
