<svg width="80" height="80" viewBox="0 0 80 80" fill="none" xmlns="http://www.w3.org/2000/svg">
<g clip-path="url(#clip0_9594_31331)">
<path d="M42.2962 42.7318L60.9899 24.012L64.9999 28.021L46.5 47L46.24 47.2728C44.1168 49.566 43.0881 52.3528 43 55.5V85L36.9999 85V55.5C36.9118 52.3528 35.8832 49.566 33.76 47.2728L33.4999 47L15 28.021L19.01 24.012L37.7037 42.7319L37.9999 43C38.7493 43.7999 39.4164 44.6585 40 45.5646C40.5835 44.6585 41.2506 43.7998 42 43L42.2962 42.7318Z" fill="#C3CDDE" fill-opacity="0.35"/>
<path d="M51.5 21L43 12V80H37V12L28.5 21L24 17L40 1L56 17L51.5 21Z" fill="white"/>
</g>
<defs>
<clipPath id="clip0_9594_31331">
<rect width="80" height="80" fill="white"/>
</clipPath>
</defs>
</svg>
