<svg xmlns="http://www.w3.org/2000/svg" width="80" height="80" viewBox="0 0 80 80">
  <g fill="none" transform="translate(24 8)">
    <path fill="#D1DEF4" fill-opacity=".35" d="M16,32 C7.163444,32 0,24.836556 0,16 C0,7.163444 7.163444,0 16,0 C24.836556,0 32,7.163444 32,16 C32,24.836556 24.836556,32 16,32 Z M16,6 C10.4771525,6 6,10.4771525 6,16 C6,21.5228475 10.4771525,26 16,26 L16,26 C21.5228475,26 26,21.5228475 26,16 C26,10.4771525 21.5228475,6 16,6 Z" transform="translate(0 15)"/>
    <path fill="#FFF" d="M24,0 L24.36,6.11 L36.94,5.75 L36.99,5.8 L27.74,15.05 C24.5120725,18.1801574 23.5141762,22.9597636 25.22,27.12 C26.2499069,29.5652082 26.2658444,32.3194782 25.2643037,34.7764414 C24.262763,37.2334045 22.3258545,39.1916289 19.88,40.22 C15.7578152,41.9053714 13.04693,45.8968346 13,50.35 L13,72 L19,72 L19,50.35 C19.0530503,48.3064417 20.3258601,46.4937715 22.23,45.75 C26.152628,44.1041407 29.258361,40.963957 30.8608493,37.0234121 C32.4633376,33.0828671 32.4306463,28.6663909 30.77,24.75 C30.0582503,22.8473056 30.5411476,20.7037126 32,19.29 L41.23,10 L41.23,10 L40.87,22.58 L47,23 L47,0 L24,0 Z"/>
  </g>
</svg>
