<svg xmlns="http://www.w3.org/2000/svg" width="80" height="80" viewBox="0 0 80 80">
  <g fill="none" transform="translate(2 9)">
    <path fill="#D1DEF4" fill-opacity=".35" d="M16,32 C7.163444,32 0,24.836556 0,16 C0,7.163444 7.163444,0 16,0 L16,0 C24.836556,0 32,7.163444 32,16 C32,24.836556 24.836556,32 16,32 Z M16,6 L16,6 C10.4771525,6 6,10.4771525 6,16 C6,21.5228475 10.4771525,26 16,26 L16,26 C21.5228475,26 26,21.5228475 26,16 C26,10.4771525 21.5228475,6 16,6 L16,6 Z" transform="translate(30 1)"/>
    <path fill="#FFF" d="M46.6,1 C39.6904475,0.743716889 33.3979693,4.95483696 31,11.44 C30.3279638,13.0414467 28.7356852,14.060505 27,14 L11.18,14 L11.18,14 L20.33,5.36 L16.26,0.77 L0,17 L16.26,33.29 L20.33,28.72 L11.18,20.08 L11.18,20 L27,20 C31.2372036,20.0380157 35.0557338,17.4498565 36.59,13.5 C38.10179,9.44219434 42.0535302,6.81846484 46.38,7 C51.5703609,7.25920107 55.7245888,11.400474 56,16.59 C56.1800912,20.9076988 53.5662898,24.8526027 49.52,26.37 C45.6395957,27.7291449 43.0305787,31.3785675 43,35.49 L43,72 L49,72 L49,35.49 C49.050214,33.8938022 50.0930792,32.4993196 51.61,32 C58.7846206,29.3504225 63.080823,21.9937167 61.8629764,14.4430683 C60.6451299,6.8924199 54.2538275,1.2595052 46.61,1 L46.6,1 Z"/>
  </g>
</svg>
