<svg xmlns="http://www.w3.org/2000/svg" width="80" height="80" viewBox="0 0 80 80">
  <g fill="none" transform="translate(24 10)">
    <path fill="#D1DEF4" fill-opacity=".35" d="M16,32 L16,32 C7.163444,32 0,24.836556 0,16 C0,7.163444 7.163444,0 16,0 L16,0 C24.836556,0 32,7.163444 32,16 C32,24.836556 24.836556,32 16,32 Z M16,6 C10.4771525,6 6,10.4771525 6,16 C6,21.5228475 10.4771525,26 16,26 L16,26 C21.5228475,26 26,21.5228475 26,16 C26,10.4771525 21.5228475,6 16,6 Z" transform="translate(1 1)"/>
    <path fill="#FFF" d="M41.89,25.36 L42.25,37.89 L32.4,28.05 C31.2127674,26.8591619 30.897079,25.0529446 31.61,23.53 C33.8720127,18.4808919 33.3650066,12.6214703 30.2693256,8.03595464 C27.1736446,3.45043901 21.9286473,0.789634565 16.4,1 C8.75617251,1.2595052 2.36487008,6.8924199 1.14702356,14.4430683 C-0.0708229564,21.9937167 4.22537939,29.3504225 11.4,32 C12.9129788,32.5027225 13.9512721,33.8964316 14,35.49 L14,71 L20,71 L20,35.49 C19.9739407,31.3863446 17.3785739,27.7392344 13.51,26.37 C9.45186495,24.8627413 6.82436766,20.9154412 7,16.59 C7.2754112,11.400474 11.4296391,7.25920107 16.62,7 C19.3373729,6.89666448 21.9796448,7.90443547 23.9380192,9.79111602 C25.8963937,11.6777966 27.0019641,14.2806637 27,17 C27.0039378,18.4000042 26.7072523,19.7845366 26.13,21.06 C24.3963791,24.8484541 25.1932295,29.3148004 28.13,32.27 L38,42.16 L37.91,42.25 L25.33,41.89 L25,48 L48,48 L48,25 L41.89,25.36 Z"/>
  </g>
</svg>
