<svg width="80" height="80" viewBox="0 0 80 80" fill="none" xmlns="http://www.w3.org/2000/svg">
<path d="M43 33.0152V5H37V80H43L43.0001 46.488C43.0882 43.3408 44.1168 40.554 46.24 38.2608L46.5001 37.988L65 19.009L60.99 15L43 33.0152Z" fill="#C3CDDE" fill-opacity="0.35"/>
<path d="M30 7L29.6406 13.1094L17.0625 12.75L16.905 12.907L37.7038 33.7319L38 34C41.1919 37.407 42.8919 41.8802 42.995 46.5477L43 47V80H37V46.5C36.9119 43.3528 35.8832 40.566 33.76 38.2728L33.5 38L12.895 16.916L12.75 17.0625L13.1094 29.6406L7 30V7H30Z" fill="white"/>
</svg>
