<svg xmlns="http://www.w3.org/2000/svg" width="80" height="80" viewBox="0 0 80 80">
  <g fill="none" transform="translate(9 9)">
    <path fill="#D1DEF4" fill-opacity=".35" d="M16,32 C7.163444,32 0,24.836556 0,16 C0,7.163444 7.163444,0 16,0 L16,0 C24.836556,0 32,7.163444 32,16 C32,24.836556 24.836556,32 16,32 Z M16,6 L16,6 C10.4771525,6 6,10.4771525 6,16 C6,21.5228475 10.4771525,26 16,26 L16,26 C21.5228475,26 26,21.5228475 26,16 C26,10.4771525 21.5228475,6 16,6 Z" transform="translate(15 1)"/>
    <path fill="#FFF" d="M31.6,1 C26.0713527,0.789634565 20.8263554,3.45043901 17.7306744,8.03595464 C14.6349934,12.6214703 14.1279873,18.4808919 16.39,23.53 C17.102921,25.0529446 16.7872326,26.8591619 15.6,28.05 L5.75,37.89 L6.11,25.36 L0,25 L0,48 L23,48 L22.64,41.89 L10.06,42.25 L10,42.16 L19.87,32.29 C22.8067705,29.3348004 23.6036209,24.8684541 21.87,21.08 C21.2899406,19.7983985 20.9931905,18.4067427 21,17 C20.9980359,14.2806637 22.1036063,11.6777966 24.0619808,9.79111602 C26.0203552,7.90443547 28.6626271,6.89666448 31.38,7 C36.5703609,7.25920107 40.7245888,11.400474 41,16.59 C41.1800912,20.9076988 38.5662898,24.8526027 34.52,26.37 C30.6395957,27.7291449 28.0305787,31.3785675 28,35.49 L28,71 L34,71 L34,35.49 C34.050214,33.8938022 35.0930792,32.4993196 36.61,32 C43.7846206,29.3504225 48.080823,21.9937167 46.8629764,14.4430683 C45.6451299,6.8924199 39.2538275,1.2595052 31.61,1 L31.6,1 Z"/>
  </g>
</svg>
