<svg xmlns="http://www.w3.org/2000/svg" width="80" height="80" viewBox="0 0 80 80">
  <g fill="none" fill-rule="evenodd">
    <path fill="#D1DEF4" fill-opacity=".35" d="M43,5 L43.001327,34.083533 C42.4377083,33.2566952 41.8182191,32.4638871 41.1452833,31.7110409 L40.7351277,31.2641761 L40.4142628,30.9304966 L37,27.45 L37,5 L43,5 Z"/>
    <path fill="#FFF" fill-rule="nonzero" d="M30,7 L29.640625,13.109375 L17.0625,12.75 L16.905,12.907 L37.7037927,33.7318593 L38,34 C41.1918706,37.4069581 42.8918747,41.8802181 42.9950079,46.5477283 L43,47 L43,80 L37,80 L37,46.5 C36.9118668,43.3527855 35.8832431,40.5660321 33.7600473,38.2728093 L33.5,38 L12.895,16.916 L12.75,17.0625 L13.109375,29.640625 L7,30 L7,7 L30,7 Z"/>
  </g>
</svg>
