<svg width="80" height="80" viewBox="0 0 80 80" fill="none" xmlns="http://www.w3.org/2000/svg">
<path d="M40 16C35.2533 16 30.6131 17.4076 26.6663 20.0447C22.7195 22.6819 19.6434 26.4302 17.8269 30.8156C16.0104 35.201 15.5351 40.0266 16.4612 44.6822C17.3872 49.3377 19.673 53.6141 23.0294 56.9706C26.3859 60.327 30.6623 62.6128 35.3178 63.5388C39.9734 64.4649 44.799 63.9896 49.1844 62.1731C53.5698 60.3566 57.3181 57.2805 59.9553 53.3337C62.5924 49.3869 64 44.7468 64 40C64 33.6348 61.4714 27.5303 56.9706 23.0294C52.4697 18.5286 46.3652 16 40 16ZM54.16 25.88C56.9562 28.6774 58.8603 32.241 59.6313 36.1204C60.4024 39.9998 60.0058 44.0208 58.4918 47.6748C56.9778 51.3289 54.4144 54.452 51.1256 56.6492C47.8368 58.8465 43.9703 60.0193 40.015 60.0193C36.0597 60.0193 32.1933 58.8465 28.9044 56.6492C25.6156 54.452 23.0522 51.3289 21.5382 47.6748C20.0242 44.0208 19.6277 39.9998 20.3987 36.1204C21.1698 32.241 23.0738 28.6774 25.87 25.88L40 40L54.14 25.86L54.16 25.88Z" fill="#C3CDDE" fill-opacity="0.35"/>
<path d="M46.24 39.55C46.242 40.7822 45.8785 41.9873 45.1956 43.0129C44.5127 44.0385 43.541 44.8386 42.4034 45.3119C41.2657 45.7853 40.0133 45.9107 38.8044 45.6722C37.5955 45.4338 36.4845 44.8422 35.6118 43.9723C34.7391 43.1025 34.144 41.9933 33.9017 40.7852C33.6594 39.5771 33.7807 38.3243 34.2504 37.1851C34.7201 36.046 35.5171 35.0717 36.5405 34.3855C37.5639 33.6993 38.7678 33.332 40 33.33C40.8185 33.3274 41.6295 33.4863 42.3864 33.7977C43.1434 34.1091 43.8315 34.5669 44.4112 35.1447C44.9909 35.7226 45.4508 36.4091 45.7646 37.1651C46.0785 37.921 46.24 38.7315 46.24 39.55ZM40 20C45.299 20.0011 50.381 22.1051 54.13 25.85L57 23.03C56.71 22.73 56.4 22.44 56.09 22.15C51.5128 18.0671 45.5511 15.883 39.4196 16.0428C33.2882 16.2026 27.4483 18.6942 23.09 23.01L25.93 25.86C29.659 22.1206 34.7191 20.0131 40 20Z" fill="white"/>
</svg>
