<svg width="80" height="80" viewBox="0 0 80 80" fill="none" xmlns="http://www.w3.org/2000/svg">
<path fill-rule="evenodd" clip-rule="evenodd" d="M40 14.1626C34.4538 14.1464 29.1277 16.3209 25.1906 20.209C21.2535 24.0971 19.0271 29.3812 19 34.9014C19 40.6214 22.0732 48.4112 28.998 55.2935L40 66.1625L51.002 55.2426C57.9678 48.4112 61 40.6214 61 34.9014C60.9729 29.3812 58.7465 24.0971 54.8094 20.209C50.8723 16.3209 45.5462 14.1464 40 14.1626Z" fill="#C3CDDE" fill-opacity="0.35"/>
<path d="M61 34.8366C61 40.4472 58.06 48.05 51.3502 54.7686L40 66L28.998 55.1142C22.0322 48.3041 19 40.5895 19 34.8366C19 29.3104 21.2125 24.0105 25.1508 20.1029C29.089 16.1953 34.4305 14 40 14C45.5695 14 50.911 16.1953 54.8492 20.1029C58.7875 24.0105 61 29.3104 61 34.8366ZM57.9268 34.8366C57.9268 30.1299 56.0424 25.6159 52.6882 22.2878C49.3339 18.9596 44.7846 17.0899 40.041 17.0899C35.2974 17.0899 30.748 18.9596 27.3938 22.2878C24.0395 25.6159 22.1551 30.1299 22.1551 34.8366C22.1551 40.183 25.2283 46.9116 30.9137 52.6036L40 61.6396L48.82 52.9085C54.5873 47.2674 57.7732 40.5387 57.8859 35.1314L57.9268 34.8366Z" fill="white"/>
<path d="M44.563 38.0707C45.1698 37.1689 45.4959 36.1076 45.5 35.0207C45.5027 34.2967 45.3624 33.5793 45.0873 32.9096C44.8121 32.2399 44.4074 31.6311 43.8964 31.1182C43.3854 30.6053 42.7782 30.1983 42.1095 29.9206C41.4409 29.6429 40.724 29.5 40 29.5C38.913 29.5 37.8505 29.8221 36.9465 30.4255C36.0425 31.0289 35.3375 31.8867 34.9206 32.8905C34.5038 33.8943 34.3936 34.9991 34.6042 36.0654C34.8147 37.1317 35.3365 38.1118 36.1036 38.8818C36.8707 39.6518 37.8488 40.1772 38.9143 40.3918C39.9799 40.6063 41.0851 40.5004 42.0904 40.0873C43.0958 39.6741 43.9562 38.9724 44.563 38.0707Z" fill="white"/>
</svg>
