<svg xmlns="http://www.w3.org/2000/svg" width="80" height="80" viewBox="0 0 80 80">
  <g fill="none" transform="translate(24 2)">
    <path fill="#D1DEF4" fill-opacity=".35" d="M16,32 C7.163444,32 0,24.836556 0,16 C0,7.163444 7.163444,0 16,0 L16,0 C24.836556,0 32,7.163444 32,16 C32,24.836556 24.836556,32 16,32 Z M16,6 L16,6 C10.4771525,6 6,10.4771525 6,16 C6,21.5228475 10.4771525,26 16,26 L16,26 C21.5228475,26 26,21.5228475 26,16 C26,10.4771525 21.5228475,6 16,6 Z" transform="translate(1 24)"/>
    <path fill="#FFF" d="M17,0 L0.74,16.26 L5.31,20.33 L14,11.18 L14,11.18 L14,21.28 C14.0155132,22.9294421 13.001897,24.4139508 11.46,25 C5.18894255,27.327718 1.02776436,33.3108721 1.02776436,40 C1.02776436,46.6891279 5.18894255,52.672282 11.46,55 C12.997555,55.6027808 14.0065884,57.0885229 14,58.74 L14,78 L20,78 L20,58.74 C19.9974074,54.5811698 17.4210996,50.8580665 13.53,49.39 C9.58940744,47.9467228 6.96917141,44.1965842 6.96917141,40 C6.96917141,35.8034158 9.58940744,32.0532772 13.53,30.61 C17.4142691,29.1445259 19.9891038,25.4315108 20,21.28 L20,11.18 L20.07,11.18 L28.71,20.33 L33.28,16.26 L17,0 Z"/>
  </g>
</svg>
