<svg xmlns="http://www.w3.org/2000/svg" width="80" height="80" viewBox="0 0 80 80">
  <path fill="#FFF" d="M34.9060824,16.2888705 C38.388519,12.9301822 43.9336948,12.921792 47.4263724,16.320073 C49.092085,17.9407663 50.0633187,20.1398021 50.144625,22.4543136 L50.1501778,22.770601 L50.1501778,80 L44.1501778,80 L44.1501778,22.770601 L44.1433988,22.5689504 C44.0938441,21.832922 43.7743453,21.13815 43.2422427,20.6204285 C42.1022327,19.5112296 40.306222,19.4908399 39.1421274,20.5416166 L39,20.6785415 L16.557,43.744601 L17.0625,44.25 L29.640625,43.890625 L30,50 L7,50 L7,27 L13.109375,27.359375 L12.775,39.026601 L34.6996444,16.4944117 L34.9060824,16.2888705 Z"/>
</svg>
